<svg xmlns="http://www.w3.org/2000/svg" width="500" height="500" viewBox="0 0 500 500"><linearGradient id="a" gradientUnits="userSpaceOnUse" x1="271.34" y1="-163.121" x2="358.668" y2="325.178" gradientTransform="matrix(1 0 0 -1 -47.6 330.01)"><stop offset="0" stop-color="#333"/><stop offset=".356" stop-color="#383838"/><stop offset=".798" stop-color="#484848"/><stop offset="1" stop-color="#515151"/></linearGradient><path fill="url(#a)" d="M406.127 269.368c-17.728-28.327-36.877-50.412-49.705-58.553-.918-2.253-1.849-4.498-2.789-6.73-2.92-9.277-5.961-13.645-9.136-23.026 5.81-12.909 9.111-32.2 9.111-47.271 0-46.671-30.975-86.022-73.477-98.808.916-4.918 3.016-12.198 7.818-18.452-10.666 6.913-12.107 16.46-12.107 16.46s-3.646-9.998 11.514-26.33c-10.703 2.747-21.436 19.14-21.436 19.14s-3.346-4.587 18.135-25.798c-16.549 2.491-32.884 23.425-38.022 30.567-55.083 2.241-99.044 47.594-99.044 103.22 0 16.902 4.144 32.822 11.349 46.91-4.674 9.684-9.111 19.743-13.286 29.986-12.83 8.035-32.089 30.207-49.911 58.685-24.745 39.555-37.332 76.302-28.123 82.065 7.286 4.549 25.97-11.56 45.688-37.994-5.756 25.386-8.901 47.283-8.901 61.75 0 66.215 65.771 119.895 146.906 119.895 81.137 0 146.907-53.68 146.907-119.895 0-14.412-3.121-36.195-8.834-61.457 19.638 26.263 38.209 42.233 45.47 37.701 9.205-5.763-3.382-42.51-28.127-82.065z"/><radialGradient id="b" cx="298.306" cy="67.232" r="157.099" gradientTransform="matrix(1 0 0 -1 -47.6 330.01)" gradientUnits="userSpaceOnUse"><stop offset="0" stop-color="#fff"/><stop offset=".515" stop-color="#FDFDFD"/><stop offset=".7" stop-color="#F6F6F6"/><stop offset=".833" stop-color="#EBEBEB"/><stop offset=".939" stop-color="#DADADA"/><stop offset="1" stop-color="#ccc"/></radialGradient><path fill="url(#b)" d="M333.901 215.336c-2.365-7.499-4.818-11.071-7.387-18.645 4.699-10.448 7.363-25.991 7.363-38.181 0-45.019-35.65-81.631-80.266-83.342-.466-.03-.923-.166-1.381-.166l-.646.061-1.201-.061c-46.129 0-83.507 37.394-83.507 83.508 0 13.668 3.347 26.54 9.172 37.918-26.886 55.691-44.088 126.785-44.088 157.213 0 53.516 53.162 96.912 118.745 96.912 65.577 0 118.745-43.396 118.745-96.912.002-27.08-13.612-86.328-35.549-138.305z"/><linearGradient id="c" gradientUnits="userSpaceOnUse" x1="232.728" y1="-131.307" x2="232.728" y2="-165.075" gradientTransform="matrix(1 0 0 -1 -47.6 330.01)"><stop offset="0" stop-color="#FFE773"/><stop offset=".22" stop-color="#FFE36E"/><stop offset=".482" stop-color="#FFD960"/><stop offset=".765" stop-color="#FFC748"/><stop offset="1" stop-color="#FFB42E"/></linearGradient><path fill="url(#c)" d="M185.132 461.316c-18.651 0-33.775 15.115-33.775 33.768h67.543c-.001-18.651-15.124-33.768-33.768-33.768z"/><linearGradient id="d" gradientUnits="userSpaceOnUse" x1="366.057" y1="-131.307" x2="366.057" y2="-165.075" gradientTransform="matrix(1 0 0 -1 -47.6 330.01)"><stop offset="0" stop-color="#FFE773"/><stop offset=".22" stop-color="#FFE36E"/><stop offset=".482" stop-color="#FFD960"/><stop offset=".765" stop-color="#FFC748"/><stop offset="1" stop-color="#FFB42E"/></linearGradient><path fill="url(#d)" d="M318.461 461.316c-18.65 0-33.775 15.115-33.775 33.768h67.543c0-18.651-15.123-33.768-33.768-33.768z"/><linearGradient id="e" gradientUnits="userSpaceOnUse" x1="298.309" y1="259.817" x2="298.309" y2="105.015" gradientTransform="matrix(1 0 0 -1 -47.6 330.01)"><stop offset="0" stop-color="#FFE773"/><stop offset=".22" stop-color="#FFE36E"/><stop offset=".482" stop-color="#FFD960"/><stop offset=".765" stop-color="#FFC748"/><stop offset="1" stop-color="#FFB42E"/></linearGradient><path fill="url(#e)" d="M335.274 147.598c0 42.752-37.856 77.397-84.565 77.397-46.707 0-84.564-34.646-84.564-77.397s37.857-77.405 84.564-77.405c46.707-.001 84.565 34.653 84.565 77.405z"/><path fill="#444" d="M333.901 138.561c0 45.942-37.25 83.192-83.192 83.192-45.941 0-83.191-37.25-83.191-83.192 0-45.949 37.25-83.191 83.191-83.191 45.942-.001 83.192 37.241 83.192 83.191z"/><radialGradient id="f" cx="248.74" cy="213.95" r="33.625" gradientTransform="matrix(1 0 0 -1 -47.6 330.01)" gradientUnits="userSpaceOnUse"><stop offset="0" stop-color="#fff"/><stop offset=".515" stop-color="#FDFDFD"/><stop offset=".7" stop-color="#F6F6F6"/><stop offset=".833" stop-color="#EBEBEB"/><stop offset=".939" stop-color="#DADADA"/><stop offset="1" stop-color="#ccc"/></radialGradient><path fill="url(#f)" d="M201.141 149.685c-18.562 0-33.625-15.042-33.625-33.61 0-18.584 15.063-33.641 33.625-33.641 18.563 0 33.625 15.057 33.625 33.641 0 18.568-15.063 33.61-33.625 33.61z"/><radialGradient id="g" cx="255.414" cy="213.962" r="13.344" gradientTransform="matrix(1 0 0 -1 -47.6 330.01)" gradientUnits="userSpaceOnUse"><stop offset="0"/><stop offset=".218" stop-color="#040404"/><stop offset=".453" stop-color="#111"/><stop offset=".694" stop-color="#272727"/><stop offset=".94" stop-color="#444"/><stop offset="1" stop-color="#4D4D4D"/></radialGradient><path fill="url(#g)" d="M207.814 102.706c-7.362 0-13.345 5.968-13.345 13.338 0 7.371 5.981 13.345 13.345 13.345 7.378 0 13.346-5.974 13.346-13.345-.001-7.37-5.968-13.338-13.346-13.338z"/><path fill="#fff" d="M216.85 110.655c0 2.131-1.741 3.865-3.88 3.865-2.124 0-3.851-1.734-3.851-3.865 0-2.14 1.727-3.858 3.851-3.858 2.139 0 3.88 1.719 3.88 3.858zM219.778 116.374c0 1.006-.804 1.816-1.802 1.816-1.006 0-1.823-.811-1.823-1.816 0-.998.817-1.809 1.823-1.809.998 0 1.802.811 1.802 1.809zM213.796 120.833c0 .931-.758 1.681-1.688 1.681-.93 0-1.682-.75-1.682-1.681 0-.932.751-1.689 1.682-1.689.931 0 1.688.757 1.688 1.689z"/><radialGradient id="h" cx="-262.097" cy="213.95" r="33.625" gradientTransform="matrix(-1 0 0 -1 38.178 330.01)" gradientUnits="userSpaceOnUse"><stop offset="0" stop-color="#fff"/><stop offset=".515" stop-color="#FDFDFD"/><stop offset=".7" stop-color="#F6F6F6"/><stop offset=".833" stop-color="#EBEBEB"/><stop offset=".939" stop-color="#DADADA"/><stop offset="1" stop-color="#ccc"/></radialGradient><path fill="url(#h)" d="M300.268 149.685c18.568 0 33.633-15.042 33.633-33.61 0-18.584-15.063-33.641-33.633-33.641-18.555 0-33.617 15.057-33.617 33.641 0 18.568 15.062 33.61 33.617 33.61z"/><radialGradient id="i" cx="-255.425" cy="213.962" r="13.343" gradientTransform="matrix(-1 0 0 -1 38.178 330.01)" gradientUnits="userSpaceOnUse"><stop offset="0"/><stop offset=".218" stop-color="#040404"/><stop offset=".453" stop-color="#111"/><stop offset=".694" stop-color="#272727"/><stop offset=".94" stop-color="#444"/><stop offset="1" stop-color="#4D4D4D"/></radialGradient><path fill="url(#i)" d="M293.602 102.706c7.363 0 13.346 5.968 13.346 13.338 0 7.371-5.981 13.345-13.346 13.345-7.377 0-13.344-5.974-13.344-13.345 0-7.37 5.967-13.338 13.344-13.338z"/><path fill="#fff" d="M284.567 110.655c0 2.131 1.74 3.865 3.879 3.865 2.125 0 3.853-1.734 3.853-3.865 0-2.14-1.728-3.858-3.853-3.858-2.139 0-3.879 1.719-3.879 3.858zM281.639 116.374c0 1.006.803 1.816 1.801 1.816 1.006 0 1.824-.811 1.824-1.816 0-.998-.818-1.809-1.824-1.809-.998 0-1.801.811-1.801 1.809zM287.621 120.833c0 .931.758 1.681 1.688 1.681.933 0 1.683-.75 1.683-1.681 0-.932-.75-1.689-1.683-1.689-.93 0-1.688.757-1.688 1.689z"/><radialGradient id="j" cx="298.24" cy="173.774" r="21.211" gradientTransform="matrix(1 0 0 -1 -47.6 330.01)" gradientUnits="userSpaceOnUse"><stop offset="0" stop-color="#fff"/><stop offset="1" stop-color="#fbb"/></radialGradient><path fill="url(#j)" d="M268.594 153.572l-6.92 11.948c-3.033 5.284-7.041 12.535-11.057 12.55-4.016.015-8.008-7.243-11.063-12.55l-6.898-11.948c-4.098-7.108-3.137-13.226 1.563-16.543l12.001-2.627h11.304c12.218 0 17.179 8.572 11.07 19.17z"/><radialGradient id="k" cx="298.356" cy="181.137" r="17.911" gradientTransform="matrix(1 0 0 -1 -47.6 330.01)" gradientUnits="userSpaceOnUse"><stop offset="0" stop-color="#F7E563"/><stop offset=".095" stop-color="#F4DF5A"/><stop offset=".321" stop-color="#F0D44B"/><stop offset=".588" stop-color="#EECE43"/><stop offset="1" stop-color="#EDCC40"/></radialGradient><path fill="url(#k)" d="M257.658 134.117h-13.811c-12.227 0-17.173 5.795-11.063 12.947l6.904 8.084c3.063 3.587 7.048 8.496 11.07 8.481 4.008 0 8.018-4.901 11.049-8.481l6.92-8.084c6.111-7.152 1.158-12.947-11.069-12.947z"/></svg>